<?xml version="1.0" encoding="UTF-8" standalone="no"?>
<svg
   width="96"
   height="96"
   viewBox="0 0 2.88 2.88"
   version="1.1"
   id="svg4"
   sodipodi:docname="freebsd.svg"
   inkscape:version="1.2.2 (b0a8486541, 2022-12-01)"
   xmlns:inkscape="http://www.inkscape.org/namespaces/inkscape"
   xmlns:sodipodi="http://sodipodi.sourceforge.net/DTD/sodipodi-0.dtd"
   xmlns="http://www.w3.org/2000/svg"
   xmlns:svg="http://www.w3.org/2000/svg">
  <defs
     id="defs8" />
  <sodipodi:namedview
     id="namedview6"
     pagecolor="#ffffff"
     bordercolor="#000000"
     borderopacity="0.25"
     inkscape:showpageshadow="2"
     inkscape:pageopacity="0.0"
     inkscape:pagecheckerboard="0"
     inkscape:deskcolor="#d1d1d1"
     showgrid="false"
     inkscape:zoom="4.3274935"
     inkscape:cx="106.52818"
     inkscape:cy="43.905323"
     inkscape:window-width="1920"
     inkscape:window-height="1011"
     inkscape:window-x="0"
     inkscape:window-y="0"
     inkscape:window-maximized="1"
     inkscape:current-layer="svg4" />
  <path
     fill="#9b2718"
     fill-rule="evenodd"
     d="M 2.8281216,0.08900699 C 2.9787361,0.23955093 2.5612001,0.90132457 2.4906127,0.97191189 2.4200255,1.0423935 2.2407393,0.97754762 2.0901601,0.82696835 1.9395457,0.67642442 1.8746646,0.49710303 1.9452519,0.42651571 2.0158392,0.3558932 2.6775423,-0.06160746 2.8281216,0.08900699 Z M 0.71606761,0.24828632 C 0.48613052,0.11781954 0.15897733,-0.02730004 0.05489278,0.07678452 -0.05060069,0.18220756 0.09987281,0.51675758 0.23167808,0.74711734 0.34897133,0.5431398 0.51589413,0.37142662 0.71606761,0.24828632 Z M 2.5984311,0.91999288 C 2.6196001,0.99181299 2.6157608,1.0511641 2.5814535,1.0854011 2.5012149,1.1656395 2.284557,1.0802584 2.0892796,0.89435042 2.0756129,0.88212795 2.0621224,0.86944754 2.0488433,0.85613324 1.978256,0.78547548 1.9232726,0.71023865 1.8881551,0.64102506 1.8197516,0.51834262 1.8026332,0.40992562 1.8543407,0.35825318 1.8825193,0.33007462 1.927605,0.32239597 1.9825885,0.3323289 2.0184809,0.30968039 2.060784,0.28439009 2.1072081,0.25850106 1.9184471,0.16005216 1.7038673,0.10443471 1.4761844,0.10443471 c -0.75504468,0 -1.36718877,0.61203849 -1.36718877,1.36718879 0,0.7550095 0.61214409,1.3671184 1.36718877,1.3671184 0.75508,0 1.367224,-0.6121089 1.367224,-1.3671184 0,-0.2438503 -0.064001,-0.47251929 -0.1758342,-0.67075548 -0.024198,0.0440642 -0.047692,0.0844652 -0.069143,0.11912486 z"
     id="path2"
     style="stroke-width:0.118386" />
</svg>
