<?xml version="1.0" encoding="UTF-8" standalone="no"?>
<svg
   width="48"
   height="48"
   viewBox="0 0 1.44 1.44"
   version="1.1"
   id="svg4"
   sodipodi:docname="freebsd.svg"
   inkscape:version="1.2.2 (b0a8486541, 2022-12-01)"
   xmlns:inkscape="http://www.inkscape.org/namespaces/inkscape"
   xmlns:sodipodi="http://sodipodi.sourceforge.net/DTD/sodipodi-0.dtd"
   xmlns="http://www.w3.org/2000/svg"
   xmlns:svg="http://www.w3.org/2000/svg">
  <defs
     id="defs8" />
  <sodipodi:namedview
     id="namedview6"
     pagecolor="#ffffff"
     bordercolor="#000000"
     borderopacity="0.25"
     inkscape:showpageshadow="2"
     inkscape:pageopacity="0.0"
     inkscape:pagecheckerboard="0"
     inkscape:deskcolor="#d1d1d1"
     showgrid="false"
     inkscape:zoom="4.3274935"
     inkscape:cx="102.13765"
     inkscape:cy="43.905323"
     inkscape:window-width="1920"
     inkscape:window-height="1011"
     inkscape:window-x="0"
     inkscape:window-y="0"
     inkscape:window-maximized="1"
     inkscape:current-layer="svg4" />
  <path
     fill="#9b2718"
     fill-rule="evenodd"
     d="M 1.4053055,0.05302463 C 1.4796628,0.12734707 1.2735283,0.45405987 1.2386799,0.48890832 1.2038315,0.52370457 1.1153192,0.49169064 1.0409793,0.41735075 0.96662208,0.34302831 0.93459076,0.25449866 0.96943919,0.21965021 1.0042877,0.1847844 1.3309656,-0.02133262 1.4053055,0.05302463 Z M 0.3625999,0.13165967 C 0.24908164,0.06724917 0.08756851,-0.0043953 0.03618273,0.04699048 -0.01589863,0.09903707 0.05838904,0.26420196 0.12346034,0.37792889 0.18136715,0.27722667 0.26377572,0.19245313 0.3625999,0.13165967 Z M 1.291909,0.46327628 c 0.010451,0.0354571 0.00856,0.0647583 -0.00838,0.0816608 -0.039613,0.0396131 -0.1465756,-0.002539 -0.2429827,-0.0943203 -0.00675,-0.006034 -0.013407,-0.0122944 -0.019963,-0.0188676 C 0.98573307,0.39686603 0.95858817,0.35972215 0.94125092,0.32555191 0.90748061,0.26498449 0.89902938,0.21145981 0.924557,0.1859495 0.93846857,0.17203795 0.96072705,0.16824706 0.987872,0.17315087 1.0055918,0.16196947 1.0264766,0.14948383 1.0493958,0.13670261 0.95620586,0.08809911 0.85026938,0.06064118 0.737864,0.06064118 c -0.37276003,0 -0.67497109,0.30215892 -0.67497109,0.6749711 0,0.37274272 0.30221106,0.67493642 0.67497109,0.67493642 0.3727775,0 0.6749885,-0.3021937 0.6749885,-0.67493642 0,-0.12038711 -0.031597,-0.23327931 -0.086808,-0.33114707 -0.011946,0.0217542 -0.023545,0.0416998 -0.034136,0.0588111 z"
     id="path2"
     style="stroke-width:0.0584463" />
</svg>
